<svg width="34" height="34" viewBox="0 0 34 34" fill="none" xmlns="http://www.w3.org/2000/svg">
    <path d="M1.36 0H32.64C34 -2.55409e-09 34 -0.000125701 34 1.36V32.64C34 34 33.9999 34 32.64 34H1.36C0 34 0 34 0 32.64V1.36C0 1.08083e-07 0 -5.39724e-08 1.36 0ZM10.7652 17.2763L21.2202 24.8413C21.4455 25.0028 21.76 24.8413 21.76 24.565V22.5718C21.76 22.1383 21.5517 21.726 21.199 21.471L15.0195 17L21.199 12.529C21.5517 12.274 21.76 11.866 21.76 11.4282V9.435C21.76 9.15875 21.4455 8.99725 21.2202 9.15875L10.7652 16.7238C10.5782 16.8598 10.5782 17.1403 10.7652 17.2763Z" fill="white"/>
</svg>
