<svg width="34" height="34" viewBox="0 0 34 34" fill="none" xmlns="http://www.w3.org/2000/svg">
    <path d="M32.64 0H1.36C0 -2.55409e-09 9.09587e-06 -0.000125701 0 1.36V32.64C0 34 9.56535e-05 34 1.36 34H32.64C34 34 34 34 34 32.64V1.36C34 1.08083e-07 34 -5.39724e-08 32.64 0ZM23.2348 17.2763L12.7798 24.8413C12.5545 25.0028 12.24 24.8413 12.24 24.565V22.5718C12.24 22.1383 12.4483 21.726 12.801 21.471L18.9805 17L12.801 12.529C12.4483 12.274 12.24 11.866 12.24 11.4282V9.435C12.24 9.15875 12.5545 8.99725 12.7798 9.15875L23.2348 16.7238C23.4218 16.8598 23.4218 17.1403 23.2348 17.2763Z" fill="white"/>
</svg>
