<svg width="20" height="18" viewBox="0 0 20 18" fill="none" xmlns="http://www.w3.org/2000/svg">
    <path d="M10.4762 15C10.4762 11.69 13.0381 9 16.1905 9C17.2381 9 18.2095 9.3 19.0476 9.81V2C19.0476 1.46957 18.8469 0.960859 18.4897 0.585786C18.1325 0.210714 17.648 0 17.1429 0H1.90476C0.847619 0 0 0.89 0 2V14C0 14.5304 0.20068 15.0391 0.557892 15.4142C0.915104 15.7893 1.39959 16 1.90476 16H10.5619C10.5143 15.67 10.4762 15.34 10.4762 15ZM1.90476 4V2L9.52381 7L17.1429 2V4L9.52381 9L1.90476 4ZM17.1429 18V16H13.3333V14H17.1429V12L20 15L17.1429 18Z" fill="black"/>
</svg>
