<svg width="20" height="17" viewBox="0 0 20 17" fill="none" xmlns="http://www.w3.org/2000/svg">
    <path d="M2.22222 1.0625C2.22222 0.474805 1.72569 0 1.11111 0C0.496528 0 0 0.474805 0 1.0625V7.10215C0 7.57363 0.177083 8.02852 0.496528 8.38711L3.45833 11.6875H3.33333C2.87153 11.6875 2.5 12.0428 2.5 12.4844C2.5 12.926 2.87153 13.2812 3.33333 13.2812H16.6667C17.1285 13.2812 17.5 12.926 17.5 12.4844C17.5 12.0428 17.1285 11.6875 16.6667 11.6875H16.5417L19.5035 8.38379C19.8229 8.0252 20 7.57031 20 7.09883V1.0625C20 0.474805 19.5035 0 18.8889 0C18.2743 0 17.7778 0.474805 17.7778 1.0625V4.80781L15.3715 7.87578C15.1736 8.12813 14.8125 8.19453 14.5313 8.03516C14.1944 7.8459 14.1111 7.41426 14.3542 7.12207L15.3125 5.97656C15.6875 5.52832 15.6215 4.8709 15.1597 4.49902C14.6979 4.12715 14.0139 4.17363 13.6146 4.60527L11.9931 6.34844C11.4236 6.9627 11.1111 7.74961 11.1111 8.56973V11.6875H8.88889V8.56973C8.88889 7.75293 8.57639 6.9627 8.00694 6.35176L6.38542 4.60859C5.98611 4.17695 5.29861 4.13047 4.84028 4.50234C4.38194 4.87422 4.3125 5.52832 4.6875 5.97988L5.64583 7.12539C5.88889 7.41758 5.80903 7.84922 5.46875 8.03848C5.1875 8.19785 4.82292 8.12813 4.62847 7.8791L2.22222 4.80781V1.0625ZM4.44444 15.9375V17H8.88889V15.9375H11.1111V17H15.5556V15.9375H16.6667C17.1285 15.9375 17.5 15.5822 17.5 15.1406C17.5 14.699 17.1285 14.3438 16.6667 14.3438H3.33333C2.87153 14.3438 2.5 14.699 2.5 15.1406C2.5 15.5822 2.87153 15.9375 3.33333 15.9375H4.44444Z" fill="black"/>
</svg>
