<svg width="33" height="33" viewBox="0 0 33 33" fill="none" xmlns="http://www.w3.org/2000/svg">
    <path d="M31.075 33C27.1333 33 23.2913 32.1212 19.5488 30.3637C15.8064 28.6061 12.4911 26.2839 9.603 23.397C6.71489 20.5101 4.39267 17.1948 2.63633 13.4512C0.88 9.7075 0.00122222 5.86544 0 1.925C0 1.375 0.183333 0.916667 0.55 0.55C0.916667 0.183333 1.375 0 1.925 0H9.35C9.77778 0 10.1597 0.1375 10.4958 0.4125C10.8319 0.6875 11.0306 1.03889 11.0917 1.46667L12.2833 7.88333C12.3444 8.31111 12.3365 8.701 12.2595 9.053C12.1825 9.405 12.0071 9.71789 11.7333 9.99167L7.33333 14.4833C8.61667 16.6833 10.2208 18.7458 12.1458 20.6708C14.0708 22.5958 16.1944 24.2611 18.5167 25.6667L22.825 21.3583C23.1 21.0833 23.4593 20.8774 23.903 20.7405C24.3467 20.6036 24.7818 20.5651 25.2083 20.625L31.5333 21.9083C31.9611 22 32.3125 22.2066 32.5875 22.528C32.8625 22.8494 33 23.2234 33 23.65V31.075C33 31.625 32.8167 32.0833 32.45 32.45C32.0833 32.8167 31.625 33 31.075 33Z" fill="white"/>
</svg>
